# xmcd
#
# Track frame offsets:
#	150
#	15257
#	31452
#	49980
#	69680
#	90789
#	108520
#	123069
#	143217
#	163741
#	184415
#	207585
#
# Disc length: 3093 seconds
# Revision: 0
# Processed by: cddbd v1.5.2PL0 Copyright (c) Steve Scherf et al.
# Submitted via: dBpowerAMP V12.0
#
DISCID=a30c130c
DTITLE=The Bobkatz - The Writer
DYEAR=2008
DGENRE=Country
TTITLE0=THE WRITER
TTITLE1=THE LONG HAUL
TTITLE2=COLD
TTITLE3=THE RED TOP TABLE
TTITLE4=THE FIRST STEP
TTITLE5=ALL THAT A KID NEEDS
TTITLE6=NOT ALL BAD
TTITLE7=THANK YOU
TTITLE8=DID I MISS THE TRAIN
TTITLE9=I WISH
TTITLE10=PURE GOLD
TTITLE11=THE OTHER SIDE
EXTD=
EXTT0=
EXTT1=
EXTT2=
EXTT3=
EXTT4=
EXTT5=
EXTT6=
EXTT7=
EXTT8=
EXTT9=
EXTT10=
EXTT11=
PLAYORDER=
